<?xml version="1.0" standalone="no"?>
<!DOCTYPE svg PUBLIC "-//W3C//DTD SVG 20010904//EN"
 "http://www.w3.org/TR/2001/REC-SVG-20010904/DTD/svg10.dtd">
<svg version="1.0" xmlns="http://www.w3.org/2000/svg"
 width="628.000000pt" height="628.000000pt" viewBox="0 0 628.000000 628.000000"
 preserveAspectRatio="xMidYMid meet">
<metadata>
Created by potrace 1.11, written by Peter Selinger 2001-2013
</metadata>
<g transform="translate(0.000000,628.000000) scale(0.100000,-0.100000)"
fill="#000000" stroke="none">
<path d="M2239 5124 c-493 -493 -901 -894 -905 -891 -10 5 -135 18 -314 32
-41 3 -91 8 -110 10 -19 2 -66 7 -105 10 -66 5 -172 14 -223 20 -25 3 -29 -1
-36 -36 -3 -13 -27 -109 -54 -214 -27 -104 -88 -343 -136 -530 -48 -187 -91
-349 -95 -361 -8 -18 97 -127 885 -915 l895 -894 -7 -75 c-3 -41 -8 -91 -9
-110 -2 -19 -6 -71 -10 -115 -3 -44 -8 -96 -10 -115 -3 -19 -7 -62 -10 -95
-13 -162 -16 -193 -20 -236 -5 -46 -5 -46 27 -52 18 -3 130 -31 248 -62 118
-31 223 -58 233 -60 10 -2 52 -14 95 -25 42 -12 84 -23 92 -25 12 -3 178 -45
240 -61 8 -2 49 -12 90 -23 41 -11 89 -24 107 -29 l32 -10 895 895 894 895 49
-6 c26 -3 80 -8 118 -11 39 -4 88 -8 110 -10 22 -2 76 -7 120 -10 44 -3 94 -8
110 -10 17 -2 66 -6 110 -10 44 -3 95 -8 114 -11 42 -5 71 3 71 21 0 7 27 115
60 241 33 125 63 241 66 257 2 17 7 33 9 36 2 3 38 140 80 305 74 290 76 299
58 318 -10 12 -412 415 -894 897 -800 800 -876 879 -873 906 3 44 14 164 19
210 5 46 14 148 20 220 13 163 17 206 24 258 8 62 3 73 -39 80 -14 3 -124 30
-245 62 -121 31 -227 58 -235 60 -8 2 -40 10 -70 19 -78 20 -568 146 -572 146
-2 0 -406 -403 -899 -896z m1608 -1276 l703 -703 -702 -702 c-387 -387 -707
-703 -712 -703 -5 0 -324 315 -709 700 l-700 701 704 704 c387 388 706 705
709 705 3 0 321 -316 707 -702z"/>
</g>
</svg>
